<svg xmlns="http://www.w3.org/2000/svg" xmlns:xlink="http://www.w3.org/1999/xlink" version="1.1" id="Cloud" x="0" y="0" width="512" height="384" viewBox="0 64 512 384" enable-background="new 0 64 512 384" xml:space="preserve">
  <g id="Inner">
    <path id="stroke" d="M446.8 208.9c0.8-5.6 1.2-11.2 1.2-16.9 0-70.6-57.4-128-128-128 -40.9 0-78.5 19.3-102.3 51.1 -8.4-2-17-3.1-25.7-3.1 -61.8 0-112 50.2-112 112 0 1.6 0 3.1 0.1 4.6C33.8 242.4 0 285.3 0 336c0 61.8 50.2 112 112 112h272c70.6 0 128-57.4 128-128C512 273.3 486.3 231.2 446.8 208.9zM384 416H112c-44.2 0-80-35.8-80-80s35.8-80 80-80c2.5 0 4.8 0.5 7.1 0.7 -4.5-10-7.1-21-7.1-32.7 0-44.2 35.8-80 80-80 14.4 0 27.8 4.1 39.5 10.8C246 120.2 280.2 96 320 96c53 0 96 43 96 96 0 12.6-2.6 24.6-7 35.7 40.8 11.1 71 48 71 92.3C480 373 437 416 384 416z"/>
    <path id="fill" fill="#FFFFFF" d="M409 227.7c4.4-11.1 7-23.1 7-35.7 0-53-43-96-96-96 -39.8 0-74 24.2-88.5 58.8 -11.7-6.7-25-10.8-39.5-10.8 -44.2 0-80 35.8-80 80 0 11.7 2.6 22.7 7.1 32.7 -2.4-0.2-4.7-0.7-7.1-0.7 -44.2 0-80 35.8-80 80s35.8 80 80 80h272c53 0 96-43 96-96C480 275.7 449.8 238.8 409 227.7z"/>
  </g>
</svg>
